<svg width="25" height="24" viewBox="0 0 25 24" fill="none" xmlns="http://www.w3.org/2000/svg">
<g clip-path="url(#clip0_4320_5051)">
<path d="M20.0245 10.2969L9.99897 23.7969C9.95219 23.8599 9.89119 23.911 9.82088 23.9463C9.75057 23.9816 9.67291 24 9.59415 24C9.52784 24.0002 9.46217 23.9871 9.40108 23.9614C9.29712 23.9186 9.21064 23.8424 9.15549 23.7449C9.10035 23.6474 9.07974 23.5343 9.09697 23.4238L10.4809 14.5H4.52761C4.43452 14.5 4.34325 14.4743 4.26397 14.4258C4.18469 14.3773 4.12049 14.3079 4.07853 14.2253C4.03658 14.1428 4.0185 14.0502 4.02631 13.958C4.03413 13.8658 4.06752 13.7776 4.12279 13.7031L14.1483 0.203132C14.2151 0.113161 14.3103 0.0480384 14.4187 0.0181699C14.5271 -0.0116986 14.6425 -0.00458897 14.7463 0.0383627C14.8502 0.0813145 14.9366 0.157629 14.9917 0.255113C15.0468 0.352597 15.0674 0.465623 15.0503 0.576132L13.6663 9.49998H19.6196C19.7127 9.49998 19.804 9.52564 19.8833 9.57413C19.9626 9.62262 20.0268 9.69203 20.0688 9.77463C20.1107 9.85723 20.1288 9.94978 20.121 10.042C20.1131 10.1342 20.0797 10.2224 20.0245 10.2969Z" fill="#FFC93E"/>
</g>
<defs>
<clipPath id="clip0_4320_5051">
<rect width="24.1472" height="24" fill="white"/>
</clipPath>
</defs>
</svg>
