<svg width="25" height="24" viewBox="0 0 25 24" fill="none" xmlns="http://www.w3.org/2000/svg">
<path d="M15.1704 18.5C14.4901 18.5 13.9167 18.2651 13.45 17.7954C12.9833 17.3257 12.75 16.7507 12.75 16.0704C12.75 15.3901 12.9849 14.8167 13.4546 14.35C13.9243 13.8833 14.4993 13.65 15.1796 13.65C15.8599 13.65 16.4333 13.8849 16.9 14.3546C17.3667 14.8243 17.6 15.3993 17.6 16.0796C17.6 16.7599 17.3651 17.3333 16.8954 17.8C16.4257 18.2667 15.8507 18.5 15.1704 18.5ZM4.75 22C4.35 22 4 21.85 3.7 21.55C3.4 21.25 3.25 20.9 3.25 20.5V5C3.25 4.6 3.4 4.25 3.7 3.95C4 3.65 4.35 3.5 4.75 3.5H6.375V2H8V3.5H16.5V2H18.125V3.5H19.75C20.15 3.5 20.5 3.65 20.8 3.95C21.1 4.25 21.25 4.6 21.25 5V20.5C21.25 20.9 21.1 21.25 20.8 21.55C20.5 21.85 20.15 22 19.75 22H4.75ZM4.75 20.5H19.75V9.75H4.75V20.5Z" fill="#FFC93E"/>
</svg>
