<svg width="104" height="50" viewBox="0 0 104 50" fill="none" xmlns="http://www.w3.org/2000/svg">
<mask id="path-1-outside-1_5819_1249" maskUnits="userSpaceOnUse" x="-0.662231" y="0" width="105" height="50" fill="black">
<rect fill="white" x="-0.662231" width="105" height="50"/>
<path d="M7.85665 1C11.7087 1 14.6594 1.69139 16.7089 3.07417C18.7584 4.43226 19.7831 6.55582 19.7831 9.44485C19.7831 11.2474 19.3634 12.7166 18.5238 13.8525C17.709 14.9636 16.5237 15.8402 14.9681 16.4822C15.4866 17.1242 16.0299 17.865 16.5978 18.7046C17.1657 19.5194 17.7213 20.3836 18.2646 21.2973C18.8325 22.1862 19.3757 23.1245 19.8943 24.1122C20.4128 25.0752 20.8943 26.0259 21.3388 26.9642H14.857C14.3878 26.1247 13.9063 25.2728 13.4125 24.4085C12.9433 23.5443 12.4495 22.7048 11.9309 21.8899C11.4371 21.075 10.9432 20.3096 10.4494 19.5935C9.95552 18.8527 9.46166 18.186 8.96781 17.5934H6.11582V26.9642H0.337769V1.6667C1.59709 1.41977 2.89345 1.24693 4.22684 1.14816C5.58494 1.04938 6.79487 1 7.85665 1ZM8.19 5.92616C7.77023 5.92616 7.38749 5.93851 7.04179 5.9632C6.72079 5.98789 6.41214 6.01259 6.11582 6.03728V13.0006H7.74553C9.91848 13.0006 11.4741 12.729 12.4124 12.1857C13.3507 11.6425 13.8199 10.7165 13.8199 9.40781C13.8199 8.14849 13.3384 7.25956 12.3754 6.74102C11.4371 6.19778 10.0419 5.92616 8.19 5.92616Z"/>
<path d="M22.8056 17.3712C22.8056 15.6427 23.0648 14.1364 23.5834 12.8524C24.1266 11.5437 24.8304 10.4572 25.6946 9.59301C26.5588 8.72877 27.5465 8.07442 28.6577 7.62995C29.7936 7.18548 30.9541 6.96325 32.1394 6.96325C34.9049 6.96325 37.0902 7.81514 38.6952 9.51893C40.3002 11.198 41.1028 13.6796 41.1028 16.9637C41.1028 17.2847 41.0904 17.6428 41.0657 18.0379C41.041 18.4082 41.0163 18.7416 40.9916 19.0379H28.4725C28.596 20.1738 29.1269 21.075 30.0652 21.7417C31.0035 22.4084 32.2628 22.7418 33.8431 22.7418C34.8555 22.7418 35.8432 22.6554 36.8062 22.4825C37.794 22.285 38.5965 22.0504 39.2138 21.7788L39.9545 26.2605C39.6582 26.4086 39.2632 26.5568 38.7693 26.7049C38.2755 26.8531 37.7199 26.9766 37.1026 27.0753C36.5099 27.1988 35.8679 27.2976 35.1765 27.3716C34.4851 27.4457 33.7938 27.4828 33.1024 27.4828C31.3492 27.4828 29.8183 27.2235 28.5096 26.7049C27.2255 26.1864 26.1514 25.4827 25.2872 24.5937C24.4476 23.6801 23.818 22.606 23.3982 21.3714C23.0031 20.1367 22.8056 18.8033 22.8056 17.3712ZM35.7692 15.2599C35.7445 14.7908 35.6581 14.334 35.5099 13.8895C35.3864 13.445 35.1765 13.05 34.8802 12.7043C34.6086 12.3586 34.2506 12.0746 33.8061 11.8524C33.3863 11.6301 32.8554 11.519 32.2134 11.519C31.5961 11.519 31.0652 11.6301 30.6208 11.8524C30.1763 12.0499 29.8059 12.3215 29.5096 12.6672C29.2133 13.0129 28.9787 13.4204 28.8059 13.8895C28.6577 14.334 28.5466 14.7908 28.4725 15.2599H35.7692Z"/>
<path d="M52.8064 23.1122C53.3497 23.1122 53.8682 23.0998 54.3621 23.0751C54.8559 23.0504 55.251 23.0134 55.5473 22.964V18.7786C55.3251 18.7292 54.9917 18.6799 54.5473 18.6305C54.1028 18.5811 53.6954 18.5564 53.325 18.5564C52.8064 18.5564 52.3126 18.5934 51.8434 18.6675C51.399 18.7169 51.0039 18.828 50.6582 19.0009C50.3125 19.1737 50.0409 19.4083 49.8433 19.7046C49.6458 20.0009 49.547 20.3713 49.547 20.8158C49.547 21.68 49.831 22.285 50.3989 22.6307C50.9915 22.9517 51.794 23.1122 52.8064 23.1122ZM52.362 6.96325C53.9917 6.96325 55.3498 7.14844 56.4362 7.51883C57.5227 7.88922 58.387 8.42011 59.029 9.1115C59.6957 9.80289 60.1648 10.6424 60.4364 11.6301C60.708 12.6178 60.8439 13.7167 60.8439 14.9266V26.4086C60.0537 26.5815 58.9549 26.779 57.5474 27.0013C56.1399 27.2482 54.4361 27.3716 52.4361 27.3716C51.1767 27.3716 50.0285 27.2605 48.9914 27.0383C47.979 26.8161 47.1025 26.458 46.3617 25.9642C45.6209 25.4456 45.053 24.7789 44.6579 23.9641C44.2628 23.1492 44.0653 22.1492 44.0653 20.9639C44.0653 19.8281 44.2875 18.8651 44.732 18.0749C45.2011 17.2847 45.8185 16.6551 46.5839 16.1859C47.3494 15.7168 48.226 15.3834 49.2137 15.1859C50.2014 14.9636 51.2261 14.8525 52.2879 14.8525C53.004 14.8525 53.6336 14.8896 54.1769 14.9636C54.7448 15.013 55.2016 15.0871 55.5473 15.1859V14.6673C55.5473 13.729 55.2633 12.9759 54.6954 12.408C54.1275 11.84 53.1398 11.5561 51.7323 11.5561C50.794 11.5561 49.868 11.6301 48.9544 11.7783C48.0408 11.9018 47.2506 12.087 46.5839 12.3339L45.8802 7.88922C46.2012 7.79045 46.5963 7.69168 47.0654 7.59291C47.5593 7.46945 48.0902 7.37068 48.6581 7.2966C49.226 7.19783 49.8186 7.12375 50.436 7.07437C51.078 7.00029 51.72 6.96325 52.362 6.96325Z"/>
<path d="M64.9083 17.223C64.9083 15.8155 65.1305 14.4945 65.575 13.2599C66.0442 12.0005 66.7109 10.9141 67.5751 10.0004C68.4393 9.06212 69.4888 8.32134 70.7234 7.7781C71.958 7.23487 73.3655 6.96325 74.9458 6.96325C75.9829 6.96325 76.9336 7.06202 77.7978 7.25956C78.662 7.43241 79.5016 7.69168 80.3164 8.03738L79.1682 12.445C78.6497 12.2475 78.0818 12.0746 77.4645 11.9265C76.8471 11.7783 76.1557 11.7042 75.3903 11.7042C73.7606 11.7042 72.5383 12.2104 71.7234 13.2228C70.9333 14.2352 70.5382 15.5686 70.5382 17.223C70.5382 18.9762 70.9086 20.3343 71.6494 21.2973C72.4148 22.2603 73.7359 22.7418 75.6125 22.7418C76.2792 22.7418 76.9953 22.6801 77.7608 22.5566C78.5262 22.4331 79.23 22.2356 79.872 21.964L80.6498 26.4827C80.0078 26.7543 79.2053 26.9889 78.2423 27.1864C77.2793 27.384 76.2175 27.4828 75.0569 27.4828C73.2791 27.4828 71.7481 27.2235 70.4641 26.7049C69.1801 26.1617 68.1183 25.4333 67.2788 24.5197C66.4639 23.606 65.859 22.5319 65.4639 21.2973C65.0935 20.038 64.9083 18.6799 64.9083 17.223Z"/>
<path d="M84.1685 2.62971L89.6873 1.74078V7.48179H96.3172V12.0746H89.6873V18.9268C89.6873 20.0873 89.8848 21.0133 90.2799 21.7047C90.6997 22.3961 91.5268 22.7418 92.7615 22.7418C93.3541 22.7418 93.9591 22.6924 94.5764 22.5936C95.2184 22.4702 95.7987 22.3097 96.3172 22.1121L97.095 26.4086C96.4283 26.6803 95.6876 26.9148 94.8727 27.1124C94.0578 27.3099 93.0578 27.4087 91.8726 27.4087C90.3663 27.4087 89.1193 27.2111 88.1316 26.8161C87.1439 26.3963 86.3538 25.8284 85.7611 25.1123C85.1685 24.3715 84.7488 23.4826 84.5018 22.4455C84.2796 21.4084 84.1685 20.2602 84.1685 19.0009V2.62971Z"/>
<path d="M84.667 44.5257C83.8736 44.5257 83.2368 44.3484 82.7566 43.9938C82.2868 43.6392 81.9475 43.1647 81.7387 42.5702C81.5404 41.9757 81.4412 41.3238 81.4412 40.6146C81.4412 40.0723 81.4986 39.5352 81.6135 39.0033C81.7387 38.4714 81.911 37.9551 82.1302 37.4545C82.2868 37.079 82.506 36.667 82.7879 36.2186C83.0698 35.7701 83.3934 35.3268 83.7588 34.8888C84.1242 34.4403 84.5156 34.0336 84.9332 33.6685C85.3613 33.3035 85.8049 33.0115 86.2643 32.7925C86.7236 32.563 87.1829 32.4483 87.6423 32.4483C88.1956 32.4483 88.6236 32.6204 88.9263 32.9645C89.2395 33.3087 89.3961 33.7468 89.3961 34.2787C89.3961 34.6958 89.3022 35.1391 89.1143 35.6084C88.9368 36.0778 88.6915 36.521 88.3783 36.9382C88.0651 37.345 87.6997 37.6787 87.2821 37.9394C86.875 38.2002 86.4417 38.3306 85.9824 38.3306C85.6901 38.3306 85.4656 38.2471 85.3091 38.0802C85.1525 37.9134 85.0742 37.6839 85.0742 37.3919C85.0742 37.3189 85.0898 37.1937 85.1211 37.0164C85.1525 36.8391 85.1994 36.6566 85.2621 36.4689C85.3247 36.2707 85.3926 36.1038 85.4656 35.9683C85.5387 35.8222 85.6118 35.7492 85.6849 35.7492C85.7266 35.7492 85.7527 35.7701 85.7632 35.8118C85.7736 35.8431 85.7788 35.8744 85.7788 35.9057C85.7788 36.1351 85.7162 36.3646 85.5909 36.594C85.4656 36.8235 85.403 37.0738 85.403 37.345C85.403 37.5536 85.4604 37.7256 85.5753 37.8612C85.6901 37.9968 85.8571 38.0646 86.0764 38.0646C86.4731 38.0646 86.8437 37.9447 87.1882 37.7048C87.5431 37.4545 87.8563 37.1364 88.1277 36.7505C88.3991 36.3646 88.6132 35.963 88.7698 35.5459C88.9263 35.1182 89.0046 34.7271 89.0046 34.3725C89.0046 33.9553 88.8741 33.6112 88.6132 33.34C88.3626 33.0584 88.0233 32.9176 87.5953 32.9176C87.1777 32.9176 86.7549 33.0271 86.3269 33.2461C85.9093 33.4547 85.5022 33.7363 85.1055 34.0909C84.7192 34.4351 84.3538 34.8158 84.0093 35.233C83.6753 35.6502 83.383 36.0726 83.1324 36.5002C82.8819 36.9173 82.6835 37.3032 82.5374 37.6578C82.339 38.1272 82.1824 38.6122 82.0676 39.1128C81.9632 39.603 81.911 40.1036 81.911 40.6146C81.911 41.2195 81.9945 41.788 82.1615 42.3199C82.339 42.8413 82.6313 43.2637 83.0385 43.5871C83.4456 43.8999 83.9937 44.0564 84.6827 44.0564H84.8393C85.3195 44.0564 85.7997 43.9156 86.2799 43.634C86.7601 43.342 87.2195 42.9717 87.6579 42.5232C88.0964 42.0748 88.4879 41.6159 88.8324 41.1465C89.1873 40.6668 89.4796 40.2392 89.7093 39.8637C89.8555 39.6238 89.9807 39.3839 90.0851 39.1441C90.2 38.8937 90.32 38.6487 90.4453 38.4088C90.4662 38.3775 90.4923 38.341 90.5236 38.2993C90.5549 38.2575 90.5915 38.2367 90.6332 38.2367C90.6541 38.2993 90.6645 38.3514 90.6645 38.3931C90.6645 38.4557 90.6541 38.5079 90.6332 38.5496C90.4975 38.9668 90.2835 39.4361 89.9912 39.9576C89.6989 40.479 89.3491 41.0057 88.942 41.5376C88.5349 42.0696 88.0912 42.565 87.611 43.0239C87.1412 43.4723 86.6505 43.8321 86.139 44.1033C85.6379 44.3849 85.1472 44.5257 84.667 44.5257Z"/>
<path d="M91.855 43.9156C91.6566 43.9156 91.4896 43.8426 91.3539 43.6966C91.2286 43.5506 91.1295 43.3732 91.0564 43.1647C90.9833 42.9456 90.9311 42.7266 90.8998 42.5076C90.8789 42.2886 90.8685 42.1061 90.8685 41.96C90.8685 41.8036 90.8841 41.5533 90.9154 41.2091C90.9572 40.8545 91.0198 40.4634 91.1034 40.0358C91.1869 39.6082 91.2913 39.1962 91.4165 38.7999C91.5418 38.3931 91.688 38.0542 91.855 37.783C92.0325 37.5118 92.236 37.3658 92.4657 37.345C92.497 37.2511 92.544 37.1729 92.6066 37.1103C92.6693 37.0373 92.7528 37.0008 92.8572 37.0008C93.066 37.0008 93.2487 37.0894 93.4053 37.2667C93.5619 37.444 93.6924 37.6631 93.7967 37.9238C93.9011 38.1845 93.9794 38.4401 94.0316 38.6904C94.0943 38.9407 94.1256 39.1441 94.1256 39.3005C94.1256 39.7803 94.0786 40.2548 93.9847 40.7241L94.1099 40.7398C94.4127 40.7398 94.6476 40.6928 94.8146 40.599C94.9816 40.5051 95.1121 40.4165 95.2061 40.333C95.3 40.2392 95.3783 40.1922 95.441 40.1922C95.5036 40.1922 95.5349 40.2287 95.5349 40.3017C95.5349 40.4269 95.4671 40.5416 95.3314 40.6459C95.2061 40.7398 95.0495 40.8284 94.8616 40.9119C94.6737 40.9849 94.491 41.037 94.3135 41.0683C94.136 41.0996 94.0003 41.1048 93.9064 41.084C93.8542 41.303 93.7654 41.5741 93.6402 41.8975C93.5253 42.2104 93.3792 42.5232 93.2017 42.8361C93.0347 43.1386 92.8363 43.3941 92.6066 43.6027C92.377 43.8113 92.1264 43.9156 91.855 43.9156ZM93.5619 40.4113C93.6245 40.0462 93.6558 39.676 93.6558 39.3005C93.6558 39.2171 93.6349 39.0763 93.5932 38.8781C93.5619 38.6695 93.5097 38.4505 93.4366 38.221C93.3739 37.9916 93.2957 37.7934 93.2017 37.6266C93.1077 37.4597 93.0086 37.3762 92.9042 37.3762C92.852 37.3762 92.8102 37.418 92.7789 37.5014C92.758 37.5744 92.7424 37.6578 92.7319 37.7517C92.7319 37.8456 92.7319 37.9082 92.7319 37.9394C92.7319 38.3566 92.7946 38.7947 92.9198 39.2536C93.0555 39.702 93.2696 40.0879 93.5619 40.4113ZM91.902 43.5088C92.0586 43.5088 92.2204 43.4045 92.3874 43.1959C92.5545 42.9769 92.711 42.7162 92.8572 42.4137C93.0138 42.1008 93.1443 41.8036 93.2487 41.522C93.3531 41.2404 93.4209 41.0318 93.4522 40.8962C93.0555 40.6251 92.758 40.26 92.5597 39.8011C92.3718 39.3422 92.2778 38.8729 92.2778 38.3931C92.2778 38.1845 92.2935 37.9864 92.3248 37.7986C92.1055 38.1741 91.9229 38.6174 91.7767 39.1284C91.6305 39.6395 91.5209 40.1609 91.4479 40.6929C91.3852 41.2248 91.3539 41.7097 91.3539 42.1478C91.3539 42.2521 91.3643 42.4137 91.3852 42.6327C91.4165 42.8518 91.474 43.0551 91.5575 43.2429C91.641 43.4202 91.7558 43.5088 91.902 43.5088Z"/>
<path d="M95.6739 43.7279C95.6008 43.7279 95.5434 43.7018 95.5017 43.6496C95.4703 43.5871 95.4547 43.5193 95.4547 43.4463C95.4547 42.8622 95.486 42.2781 95.5486 41.6941C95.6217 41.0996 95.6582 40.5103 95.6582 39.9263C95.6582 39.8637 95.653 39.7438 95.6426 39.5665C95.6426 39.3787 95.6321 39.1806 95.6113 38.972C95.6008 38.7529 95.5799 38.56 95.5486 38.3931C95.5277 38.2158 95.4964 38.1063 95.4547 38.0646C95.4129 38.0333 95.3712 37.9968 95.3294 37.9551C95.2981 37.9134 95.2824 37.8612 95.2824 37.7986C95.2824 37.7361 95.3085 37.6891 95.3607 37.6578C95.4234 37.6161 95.486 37.5953 95.5486 37.5953C95.7261 37.5953 95.8514 37.6787 95.9245 37.8456C96.008 38.002 96.0602 38.195 96.081 38.4244C96.1124 38.6539 96.128 38.8729 96.128 39.0815C96.128 40.0619 96.0967 41.0475 96.0341 42.0383C96.0758 41.9235 96.1593 41.7202 96.2846 41.4281C96.4099 41.1361 96.5613 40.8076 96.7387 40.4425C96.9162 40.0775 97.0989 39.7281 97.2868 39.3944C97.4852 39.0502 97.6679 38.7686 97.8349 38.5496C98.0019 38.3201 98.1376 38.2054 98.242 38.2054C98.3882 38.2054 98.4926 38.2993 98.5552 38.487C98.6283 38.6643 98.6648 38.8103 98.6648 38.925C98.6648 39.4048 98.6387 39.8846 98.5865 40.3643C98.5448 40.8441 98.5239 41.3291 98.5239 41.8192C98.5239 41.8818 98.5291 42.0018 98.5396 42.1791C98.5604 42.3459 98.5918 42.5076 98.6335 42.664C98.6857 42.8101 98.764 42.8831 98.8684 42.8831C98.9519 42.8831 99.0615 42.7892 99.1972 42.6015C99.333 42.4137 99.4739 42.1947 99.62 41.9444C99.7662 41.6837 99.8967 41.4386 100.012 41.2091C100.126 40.9797 100.205 40.818 100.246 40.7241C100.257 40.7033 100.267 40.6824 100.278 40.6616C100.288 40.6303 100.304 40.6146 100.325 40.6146C100.377 40.6146 100.408 40.6563 100.419 40.7398C100.429 40.8128 100.434 40.8597 100.434 40.8806C100.434 40.9849 100.377 41.1674 100.262 41.4281C100.147 41.6889 100.001 41.9653 99.8236 42.2573C99.6566 42.5493 99.4791 42.7996 99.2912 43.0082C99.1137 43.2168 98.9519 43.3211 98.8058 43.3211C98.597 43.3211 98.4404 43.2377 98.336 43.0708C98.242 42.9039 98.1794 42.7162 98.1481 42.5076C98.1168 42.2886 98.1011 42.1061 98.1011 41.96C98.1011 41.6159 98.1168 41.2717 98.1481 40.9275C98.1898 40.5833 98.2107 40.2392 98.2107 39.895C98.2107 39.8637 98.2055 39.7855 98.1951 39.6603C98.1951 39.5352 98.1898 39.4152 98.1794 39.3005C98.169 39.1858 98.1429 39.1284 98.1011 39.1284C97.9967 39.1284 97.861 39.2588 97.6939 39.5195C97.5374 39.7803 97.3651 40.1088 97.1772 40.5051C96.9997 40.9014 96.8223 41.3134 96.6448 41.741C96.4673 42.1582 96.3107 42.5337 96.175 42.8674C96.0497 43.2012 95.961 43.4254 95.9088 43.5401C95.8879 43.5818 95.8566 43.6236 95.8148 43.6653C95.7835 43.707 95.7365 43.7279 95.6739 43.7279Z"/>
<path d="M101.094 49C100.875 49 100.687 48.8853 100.53 48.6558C100.384 48.4264 100.264 48.1239 100.17 47.7485C100.076 47.373 99.9979 46.9662 99.9353 46.5282C99.8831 46.1006 99.8466 45.673 99.8257 45.2454C99.8048 44.8282 99.7892 44.4527 99.7787 44.119C99.7787 43.7956 99.7787 43.561 99.7787 43.415C99.6012 43.269 99.5125 43.0917 99.5125 42.8831C99.5125 42.7996 99.5386 42.7266 99.5908 42.664C99.643 42.591 99.7161 42.5545 99.81 42.5545C99.8309 42.1478 99.8675 41.741 99.9197 41.3343C99.9719 40.9275 100.024 40.526 100.076 40.1297C100.097 39.9628 100.149 39.6655 100.233 39.2379C100.327 38.7999 100.442 38.294 100.577 37.7204C100.723 37.1364 100.885 36.5419 101.063 35.937C101.24 35.3216 101.423 34.7532 101.611 34.2317C101.809 33.6998 102.008 33.2722 102.206 32.9489C102.404 32.6152 102.592 32.4483 102.77 32.4483C102.968 32.4483 103.119 32.5421 103.224 32.7299C103.328 32.9176 103.401 33.1314 103.443 33.3713C103.485 33.6007 103.506 33.7885 103.506 33.9345C103.506 34.0701 103.495 34.2057 103.474 34.3412C103.464 34.4768 103.448 34.6124 103.427 34.748C103.365 35.0609 103.286 35.3738 103.192 35.6867C103.109 35.9891 103.01 36.2916 102.895 36.594C102.853 36.7088 102.775 36.8965 102.66 37.1572C102.545 37.418 102.404 37.71 102.237 38.0333C102.07 38.3462 101.893 38.6539 101.705 38.9563C101.527 39.2484 101.345 39.4935 101.157 39.6916C100.979 39.8793 100.817 39.9732 100.671 39.9732C100.598 40.4425 100.515 40.9067 100.421 41.3656C100.337 41.814 100.295 42.2834 100.295 42.7736C100.4 42.8466 100.494 42.9248 100.577 43.0082C100.671 43.0916 100.755 43.1803 100.828 43.2742C101.089 43.2533 101.345 43.1647 101.595 43.0082C101.846 42.8413 102.081 42.6484 102.3 42.4294C102.519 42.1999 102.717 41.9757 102.895 41.7567C103.083 41.5376 103.234 41.3551 103.349 41.2091C103.474 41.0527 103.558 40.9744 103.6 40.9744C103.62 40.9744 103.636 40.9901 103.647 41.0214C103.657 41.0422 103.662 41.0631 103.662 41.084C103.662 41.2508 103.558 41.4699 103.349 41.741C103.151 42.0018 102.905 42.2729 102.613 42.5545C102.321 42.8257 102.034 43.0656 101.752 43.2742C101.48 43.4828 101.272 43.6131 101.125 43.6653C101.459 44.1242 101.689 44.6196 101.814 45.1515C101.95 45.6834 102.018 46.2309 102.018 46.7941C102.018 46.9506 102.008 47.1488 101.987 47.3886C101.976 47.6285 101.94 47.8736 101.877 48.1239C101.825 48.3742 101.736 48.5828 101.611 48.7497C101.486 48.9166 101.313 49 101.094 49ZM100.781 39.3161C100.948 39.264 101.125 39.1076 101.313 38.8468C101.501 38.5861 101.684 38.2732 101.861 37.9082C102.039 37.5431 102.201 37.1677 102.347 36.7818C102.493 36.3854 102.613 36.0256 102.707 35.7023C102.811 35.3686 102.879 35.1182 102.911 34.9514C102.952 34.7428 102.989 34.529 103.02 34.31C103.052 34.0909 103.067 33.8771 103.067 33.6685C103.067 33.606 103.057 33.5069 103.036 33.3713C103.025 33.2253 102.963 33.1523 102.848 33.1523C102.817 33.1523 102.775 33.1627 102.723 33.1836C102.681 33.2044 102.65 33.2253 102.629 33.2461C102.409 33.6216 102.195 34.0701 101.987 34.5916C101.788 35.1026 101.606 35.6449 101.439 36.2186C101.272 36.7818 101.131 37.3345 101.016 37.8769C100.901 38.4192 100.823 38.899 100.781 39.3161ZM101.125 48.5933C101.261 48.5933 101.36 48.515 101.423 48.3586C101.486 48.2021 101.522 48.0248 101.533 47.8267C101.553 47.6285 101.564 47.4616 101.564 47.3261C101.564 46.9089 101.538 46.4865 101.486 46.0589C101.444 45.6312 101.35 45.2141 101.204 44.8073C101.068 44.411 100.854 44.0564 100.562 43.7435L100.28 43.6809C100.28 43.7748 100.28 43.9573 100.28 44.2285C100.29 44.5101 100.306 44.8334 100.327 45.1984C100.348 45.5739 100.379 45.9546 100.421 46.3405C100.463 46.7368 100.515 47.1018 100.577 47.4356C100.64 47.7797 100.713 48.0561 100.797 48.2647C100.891 48.4837 101 48.5933 101.125 48.5933Z"/>
</mask>
<path d="M7.85665 1C11.7087 1 14.6594 1.69139 16.7089 3.07417C18.7584 4.43226 19.7831 6.55582 19.7831 9.44485C19.7831 11.2474 19.3634 12.7166 18.5238 13.8525C17.709 14.9636 16.5237 15.8402 14.9681 16.4822C15.4866 17.1242 16.0299 17.865 16.5978 18.7046C17.1657 19.5194 17.7213 20.3836 18.2646 21.2973C18.8325 22.1862 19.3757 23.1245 19.8943 24.1122C20.4128 25.0752 20.8943 26.0259 21.3388 26.9642H14.857C14.3878 26.1247 13.9063 25.2728 13.4125 24.4085C12.9433 23.5443 12.4495 22.7048 11.9309 21.8899C11.4371 21.075 10.9432 20.3096 10.4494 19.5935C9.95552 18.8527 9.46166 18.186 8.96781 17.5934H6.11582V26.9642H0.337769V1.6667C1.59709 1.41977 2.89345 1.24693 4.22684 1.14816C5.58494 1.04938 6.79487 1 7.85665 1ZM8.19 5.92616C7.77023 5.92616 7.38749 5.93851 7.04179 5.9632C6.72079 5.98789 6.41214 6.01259 6.11582 6.03728V13.0006H7.74553C9.91848 13.0006 11.4741 12.729 12.4124 12.1857C13.3507 11.6425 13.8199 10.7165 13.8199 9.40781C13.8199 8.14849 13.3384 7.25956 12.3754 6.74102C11.4371 6.19778 10.0419 5.92616 8.19 5.92616Z" fill="#111D5E"/>
<path d="M22.8056 17.3712C22.8056 15.6427 23.0648 14.1364 23.5834 12.8524C24.1266 11.5437 24.8304 10.4572 25.6946 9.59301C26.5588 8.72877 27.5465 8.07442 28.6577 7.62995C29.7936 7.18548 30.9541 6.96325 32.1394 6.96325C34.9049 6.96325 37.0902 7.81514 38.6952 9.51893C40.3002 11.198 41.1028 13.6796 41.1028 16.9637C41.1028 17.2847 41.0904 17.6428 41.0657 18.0379C41.041 18.4082 41.0163 18.7416 40.9916 19.0379H28.4725C28.596 20.1738 29.1269 21.075 30.0652 21.7417C31.0035 22.4084 32.2628 22.7418 33.8431 22.7418C34.8555 22.7418 35.8432 22.6554 36.8062 22.4825C37.794 22.285 38.5965 22.0504 39.2138 21.7788L39.9545 26.2605C39.6582 26.4086 39.2632 26.5568 38.7693 26.7049C38.2755 26.8531 37.7199 26.9766 37.1026 27.0753C36.5099 27.1988 35.8679 27.2976 35.1765 27.3716C34.4851 27.4457 33.7938 27.4828 33.1024 27.4828C31.3492 27.4828 29.8183 27.2235 28.5096 26.7049C27.2255 26.1864 26.1514 25.4827 25.2872 24.5937C24.4476 23.6801 23.818 22.606 23.3982 21.3714C23.0031 20.1367 22.8056 18.8033 22.8056 17.3712ZM35.7692 15.2599C35.7445 14.7908 35.6581 14.334 35.5099 13.8895C35.3864 13.445 35.1765 13.05 34.8802 12.7043C34.6086 12.3586 34.2506 12.0746 33.8061 11.8524C33.3863 11.6301 32.8554 11.519 32.2134 11.519C31.5961 11.519 31.0652 11.6301 30.6208 11.8524C30.1763 12.0499 29.8059 12.3215 29.5096 12.6672C29.2133 13.0129 28.9787 13.4204 28.8059 13.8895C28.6577 14.334 28.5466 14.7908 28.4725 15.2599H35.7692Z" fill="#111D5E"/>
<path d="M52.8064 23.1122C53.3497 23.1122 53.8682 23.0998 54.3621 23.0751C54.8559 23.0504 55.251 23.0134 55.5473 22.964V18.7786C55.3251 18.7292 54.9917 18.6799 54.5473 18.6305C54.1028 18.5811 53.6954 18.5564 53.325 18.5564C52.8064 18.5564 52.3126 18.5934 51.8434 18.6675C51.399 18.7169 51.0039 18.828 50.6582 19.0009C50.3125 19.1737 50.0409 19.4083 49.8433 19.7046C49.6458 20.0009 49.547 20.3713 49.547 20.8158C49.547 21.68 49.831 22.285 50.3989 22.6307C50.9915 22.9517 51.794 23.1122 52.8064 23.1122ZM52.362 6.96325C53.9917 6.96325 55.3498 7.14844 56.4362 7.51883C57.5227 7.88922 58.387 8.42011 59.029 9.1115C59.6957 9.80289 60.1648 10.6424 60.4364 11.6301C60.708 12.6178 60.8439 13.7167 60.8439 14.9266V26.4086C60.0537 26.5815 58.9549 26.779 57.5474 27.0013C56.1399 27.2482 54.4361 27.3716 52.4361 27.3716C51.1767 27.3716 50.0285 27.2605 48.9914 27.0383C47.979 26.8161 47.1025 26.458 46.3617 25.9642C45.6209 25.4456 45.053 24.7789 44.6579 23.9641C44.2628 23.1492 44.0653 22.1492 44.0653 20.9639C44.0653 19.8281 44.2875 18.8651 44.732 18.0749C45.2011 17.2847 45.8185 16.6551 46.5839 16.1859C47.3494 15.7168 48.226 15.3834 49.2137 15.1859C50.2014 14.9636 51.2261 14.8525 52.2879 14.8525C53.004 14.8525 53.6336 14.8896 54.1769 14.9636C54.7448 15.013 55.2016 15.0871 55.5473 15.1859V14.6673C55.5473 13.729 55.2633 12.9759 54.6954 12.408C54.1275 11.84 53.1398 11.5561 51.7323 11.5561C50.794 11.5561 49.868 11.6301 48.9544 11.7783C48.0408 11.9018 47.2506 12.087 46.5839 12.3339L45.8802 7.88922C46.2012 7.79045 46.5963 7.69168 47.0654 7.59291C47.5593 7.46945 48.0902 7.37068 48.6581 7.2966C49.226 7.19783 49.8186 7.12375 50.436 7.07437C51.078 7.00029 51.72 6.96325 52.362 6.96325Z" fill="#111D5E"/>
<path d="M64.9083 17.223C64.9083 15.8155 65.1305 14.4945 65.575 13.2599C66.0442 12.0005 66.7109 10.9141 67.5751 10.0004C68.4393 9.06212 69.4888 8.32134 70.7234 7.7781C71.958 7.23487 73.3655 6.96325 74.9458 6.96325C75.9829 6.96325 76.9336 7.06202 77.7978 7.25956C78.662 7.43241 79.5016 7.69168 80.3164 8.03738L79.1682 12.445C78.6497 12.2475 78.0818 12.0746 77.4645 11.9265C76.8471 11.7783 76.1557 11.7042 75.3903 11.7042C73.7606 11.7042 72.5383 12.2104 71.7234 13.2228C70.9333 14.2352 70.5382 15.5686 70.5382 17.223C70.5382 18.9762 70.9086 20.3343 71.6494 21.2973C72.4148 22.2603 73.7359 22.7418 75.6125 22.7418C76.2792 22.7418 76.9953 22.6801 77.7608 22.5566C78.5262 22.4331 79.23 22.2356 79.872 21.964L80.6498 26.4827C80.0078 26.7543 79.2053 26.9889 78.2423 27.1864C77.2793 27.384 76.2175 27.4828 75.0569 27.4828C73.2791 27.4828 71.7481 27.2235 70.4641 26.7049C69.1801 26.1617 68.1183 25.4333 67.2788 24.5197C66.4639 23.606 65.859 22.5319 65.4639 21.2973C65.0935 20.038 64.9083 18.6799 64.9083 17.223Z" fill="#FFC93E"/>
<path d="M84.1685 2.62971L89.6873 1.74078V7.48179H96.3172V12.0746H89.6873V18.9268C89.6873 20.0873 89.8848 21.0133 90.2799 21.7047C90.6997 22.3961 91.5268 22.7418 92.7615 22.7418C93.3541 22.7418 93.9591 22.6924 94.5764 22.5936C95.2184 22.4702 95.7987 22.3097 96.3172 22.1121L97.095 26.4086C96.4283 26.6803 95.6876 26.9148 94.8727 27.1124C94.0578 27.3099 93.0578 27.4087 91.8726 27.4087C90.3663 27.4087 89.1193 27.2111 88.1316 26.8161C87.1439 26.3963 86.3538 25.8284 85.7611 25.1123C85.1685 24.3715 84.7488 23.4826 84.5018 22.4455C84.2796 21.4084 84.1685 20.2602 84.1685 19.0009V2.62971Z" fill="#111D5E"/>
<path d="M84.667 44.5257C83.8736 44.5257 83.2368 44.3484 82.7566 43.9938C82.2868 43.6392 81.9475 43.1647 81.7387 42.5702C81.5404 41.9757 81.4412 41.3238 81.4412 40.6146C81.4412 40.0723 81.4986 39.5352 81.6135 39.0033C81.7387 38.4714 81.911 37.9551 82.1302 37.4545C82.2868 37.079 82.506 36.667 82.7879 36.2186C83.0698 35.7701 83.3934 35.3268 83.7588 34.8888C84.1242 34.4403 84.5156 34.0336 84.9332 33.6685C85.3613 33.3035 85.8049 33.0115 86.2643 32.7925C86.7236 32.563 87.1829 32.4483 87.6423 32.4483C88.1956 32.4483 88.6236 32.6204 88.9263 32.9645C89.2395 33.3087 89.3961 33.7468 89.3961 34.2787C89.3961 34.6958 89.3022 35.1391 89.1143 35.6084C88.9368 36.0778 88.6915 36.521 88.3783 36.9382C88.0651 37.345 87.6997 37.6787 87.2821 37.9394C86.875 38.2002 86.4417 38.3306 85.9824 38.3306C85.6901 38.3306 85.4656 38.2471 85.3091 38.0802C85.1525 37.9134 85.0742 37.6839 85.0742 37.3919C85.0742 37.3189 85.0898 37.1937 85.1211 37.0164C85.1525 36.8391 85.1994 36.6566 85.2621 36.4689C85.3247 36.2707 85.3926 36.1038 85.4656 35.9683C85.5387 35.8222 85.6118 35.7492 85.6849 35.7492C85.7266 35.7492 85.7527 35.7701 85.7632 35.8118C85.7736 35.8431 85.7788 35.8744 85.7788 35.9057C85.7788 36.1351 85.7162 36.3646 85.5909 36.594C85.4656 36.8235 85.403 37.0738 85.403 37.345C85.403 37.5536 85.4604 37.7256 85.5753 37.8612C85.6901 37.9968 85.8571 38.0646 86.0764 38.0646C86.4731 38.0646 86.8437 37.9447 87.1882 37.7048C87.5431 37.4545 87.8563 37.1364 88.1277 36.7505C88.3991 36.3646 88.6132 35.963 88.7698 35.5459C88.9263 35.1182 89.0046 34.7271 89.0046 34.3725C89.0046 33.9553 88.8741 33.6112 88.6132 33.34C88.3626 33.0584 88.0233 32.9176 87.5953 32.9176C87.1777 32.9176 86.7549 33.0271 86.3269 33.2461C85.9093 33.4547 85.5022 33.7363 85.1055 34.0909C84.7192 34.4351 84.3538 34.8158 84.0093 35.233C83.6753 35.6502 83.383 36.0726 83.1324 36.5002C82.8819 36.9173 82.6835 37.3032 82.5374 37.6578C82.339 38.1272 82.1824 38.6122 82.0676 39.1128C81.9632 39.603 81.911 40.1036 81.911 40.6146C81.911 41.2195 81.9945 41.788 82.1615 42.3199C82.339 42.8413 82.6313 43.2637 83.0385 43.5871C83.4456 43.8999 83.9937 44.0564 84.6827 44.0564H84.8393C85.3195 44.0564 85.7997 43.9156 86.2799 43.634C86.7601 43.342 87.2195 42.9717 87.6579 42.5232C88.0964 42.0748 88.4879 41.6159 88.8324 41.1465C89.1873 40.6668 89.4796 40.2392 89.7093 39.8637C89.8555 39.6238 89.9807 39.3839 90.0851 39.1441C90.2 38.8937 90.32 38.6487 90.4453 38.4088C90.4662 38.3775 90.4923 38.341 90.5236 38.2993C90.5549 38.2575 90.5915 38.2367 90.6332 38.2367C90.6541 38.2993 90.6645 38.3514 90.6645 38.3931C90.6645 38.4557 90.6541 38.5079 90.6332 38.5496C90.4975 38.9668 90.2835 39.4361 89.9912 39.9576C89.6989 40.479 89.3491 41.0057 88.942 41.5376C88.5349 42.0696 88.0912 42.565 87.611 43.0239C87.1412 43.4723 86.6505 43.8321 86.139 44.1033C85.6379 44.3849 85.1472 44.5257 84.667 44.5257Z" fill="#FFC93E"/>
<path d="M91.855 43.9156C91.6566 43.9156 91.4896 43.8426 91.3539 43.6966C91.2286 43.5506 91.1295 43.3732 91.0564 43.1647C90.9833 42.9456 90.9311 42.7266 90.8998 42.5076C90.8789 42.2886 90.8685 42.1061 90.8685 41.96C90.8685 41.8036 90.8841 41.5533 90.9154 41.2091C90.9572 40.8545 91.0198 40.4634 91.1034 40.0358C91.1869 39.6082 91.2913 39.1962 91.4165 38.7999C91.5418 38.3931 91.688 38.0542 91.855 37.783C92.0325 37.5118 92.236 37.3658 92.4657 37.345C92.497 37.2511 92.544 37.1729 92.6066 37.1103C92.6693 37.0373 92.7528 37.0008 92.8572 37.0008C93.066 37.0008 93.2487 37.0894 93.4053 37.2667C93.5619 37.444 93.6924 37.6631 93.7967 37.9238C93.9011 38.1845 93.9794 38.4401 94.0316 38.6904C94.0943 38.9407 94.1256 39.1441 94.1256 39.3005C94.1256 39.7803 94.0786 40.2548 93.9847 40.7241L94.1099 40.7398C94.4127 40.7398 94.6476 40.6928 94.8146 40.599C94.9816 40.5051 95.1121 40.4165 95.2061 40.333C95.3 40.2392 95.3783 40.1922 95.441 40.1922C95.5036 40.1922 95.5349 40.2287 95.5349 40.3017C95.5349 40.4269 95.4671 40.5416 95.3314 40.6459C95.2061 40.7398 95.0495 40.8284 94.8616 40.9119C94.6737 40.9849 94.491 41.037 94.3135 41.0683C94.136 41.0996 94.0003 41.1048 93.9064 41.084C93.8542 41.303 93.7654 41.5741 93.6402 41.8975C93.5253 42.2104 93.3792 42.5232 93.2017 42.8361C93.0347 43.1386 92.8363 43.3941 92.6066 43.6027C92.377 43.8113 92.1264 43.9156 91.855 43.9156ZM93.5619 40.4113C93.6245 40.0462 93.6558 39.676 93.6558 39.3005C93.6558 39.2171 93.6349 39.0763 93.5932 38.8781C93.5619 38.6695 93.5097 38.4505 93.4366 38.221C93.3739 37.9916 93.2957 37.7934 93.2017 37.6266C93.1077 37.4597 93.0086 37.3762 92.9042 37.3762C92.852 37.3762 92.8102 37.418 92.7789 37.5014C92.758 37.5744 92.7424 37.6578 92.7319 37.7517C92.7319 37.8456 92.7319 37.9082 92.7319 37.9394C92.7319 38.3566 92.7946 38.7947 92.9198 39.2536C93.0555 39.702 93.2696 40.0879 93.5619 40.4113ZM91.902 43.5088C92.0586 43.5088 92.2204 43.4045 92.3874 43.1959C92.5545 42.9769 92.711 42.7162 92.8572 42.4137C93.0138 42.1008 93.1443 41.8036 93.2487 41.522C93.3531 41.2404 93.4209 41.0318 93.4522 40.8962C93.0555 40.6251 92.758 40.26 92.5597 39.8011C92.3718 39.3422 92.2778 38.8729 92.2778 38.3931C92.2778 38.1845 92.2935 37.9864 92.3248 37.7986C92.1055 38.1741 91.9229 38.6174 91.7767 39.1284C91.6305 39.6395 91.5209 40.1609 91.4479 40.6929C91.3852 41.2248 91.3539 41.7097 91.3539 42.1478C91.3539 42.2521 91.3643 42.4137 91.3852 42.6327C91.4165 42.8518 91.474 43.0551 91.5575 43.2429C91.641 43.4202 91.7558 43.5088 91.902 43.5088Z" fill="#FFC93E"/>
<path d="M95.6739 43.7279C95.6008 43.7279 95.5434 43.7018 95.5017 43.6496C95.4703 43.5871 95.4547 43.5193 95.4547 43.4463C95.4547 42.8622 95.486 42.2781 95.5486 41.6941C95.6217 41.0996 95.6582 40.5103 95.6582 39.9263C95.6582 39.8637 95.653 39.7438 95.6426 39.5665C95.6426 39.3787 95.6321 39.1806 95.6113 38.972C95.6008 38.7529 95.5799 38.56 95.5486 38.3931C95.5277 38.2158 95.4964 38.1063 95.4547 38.0646C95.4129 38.0333 95.3712 37.9968 95.3294 37.9551C95.2981 37.9134 95.2824 37.8612 95.2824 37.7986C95.2824 37.7361 95.3085 37.6891 95.3607 37.6578C95.4234 37.6161 95.486 37.5953 95.5486 37.5953C95.7261 37.5953 95.8514 37.6787 95.9245 37.8456C96.008 38.002 96.0602 38.195 96.081 38.4244C96.1124 38.6539 96.128 38.8729 96.128 39.0815C96.128 40.0619 96.0967 41.0475 96.0341 42.0383C96.0758 41.9235 96.1593 41.7202 96.2846 41.4281C96.4099 41.1361 96.5613 40.8076 96.7387 40.4425C96.9162 40.0775 97.0989 39.7281 97.2868 39.3944C97.4852 39.0502 97.6679 38.7686 97.8349 38.5496C98.0019 38.3201 98.1376 38.2054 98.242 38.2054C98.3882 38.2054 98.4926 38.2993 98.5552 38.487C98.6283 38.6643 98.6648 38.8103 98.6648 38.925C98.6648 39.4048 98.6387 39.8846 98.5865 40.3643C98.5448 40.8441 98.5239 41.3291 98.5239 41.8192C98.5239 41.8818 98.5291 42.0018 98.5396 42.1791C98.5604 42.3459 98.5918 42.5076 98.6335 42.664C98.6857 42.8101 98.764 42.8831 98.8684 42.8831C98.9519 42.8831 99.0615 42.7892 99.1972 42.6015C99.333 42.4137 99.4739 42.1947 99.62 41.9444C99.7662 41.6837 99.8967 41.4386 100.012 41.2091C100.126 40.9797 100.205 40.818 100.246 40.7241C100.257 40.7033 100.267 40.6824 100.278 40.6616C100.288 40.6303 100.304 40.6146 100.325 40.6146C100.377 40.6146 100.408 40.6563 100.419 40.7398C100.429 40.8128 100.434 40.8597 100.434 40.8806C100.434 40.9849 100.377 41.1674 100.262 41.4281C100.147 41.6889 100.001 41.9653 99.8236 42.2573C99.6566 42.5493 99.4791 42.7996 99.2912 43.0082C99.1137 43.2168 98.9519 43.3211 98.8058 43.3211C98.597 43.3211 98.4404 43.2377 98.336 43.0708C98.242 42.9039 98.1794 42.7162 98.1481 42.5076C98.1168 42.2886 98.1011 42.1061 98.1011 41.96C98.1011 41.6159 98.1168 41.2717 98.1481 40.9275C98.1898 40.5833 98.2107 40.2392 98.2107 39.895C98.2107 39.8637 98.2055 39.7855 98.1951 39.6603C98.1951 39.5352 98.1898 39.4152 98.1794 39.3005C98.169 39.1858 98.1429 39.1284 98.1011 39.1284C97.9967 39.1284 97.861 39.2588 97.6939 39.5195C97.5374 39.7803 97.3651 40.1088 97.1772 40.5051C96.9997 40.9014 96.8223 41.3134 96.6448 41.741C96.4673 42.1582 96.3107 42.5337 96.175 42.8674C96.0497 43.2012 95.961 43.4254 95.9088 43.5401C95.8879 43.5818 95.8566 43.6236 95.8148 43.6653C95.7835 43.707 95.7365 43.7279 95.6739 43.7279Z" fill="#FFC93E"/>
<path d="M101.094 49C100.875 49 100.687 48.8853 100.53 48.6558C100.384 48.4264 100.264 48.1239 100.17 47.7485C100.076 47.373 99.9979 46.9662 99.9353 46.5282C99.8831 46.1006 99.8466 45.673 99.8257 45.2454C99.8048 44.8282 99.7892 44.4527 99.7787 44.119C99.7787 43.7956 99.7787 43.561 99.7787 43.415C99.6012 43.269 99.5125 43.0917 99.5125 42.8831C99.5125 42.7996 99.5386 42.7266 99.5908 42.664C99.643 42.591 99.7161 42.5545 99.81 42.5545C99.8309 42.1478 99.8675 41.741 99.9197 41.3343C99.9719 40.9275 100.024 40.526 100.076 40.1297C100.097 39.9628 100.149 39.6655 100.233 39.2379C100.327 38.7999 100.442 38.294 100.577 37.7204C100.723 37.1364 100.885 36.5419 101.063 35.937C101.24 35.3216 101.423 34.7532 101.611 34.2317C101.809 33.6998 102.008 33.2722 102.206 32.9489C102.404 32.6152 102.592 32.4483 102.77 32.4483C102.968 32.4483 103.119 32.5421 103.224 32.7299C103.328 32.9176 103.401 33.1314 103.443 33.3713C103.485 33.6007 103.506 33.7885 103.506 33.9345C103.506 34.0701 103.495 34.2057 103.474 34.3412C103.464 34.4768 103.448 34.6124 103.427 34.748C103.365 35.0609 103.286 35.3738 103.192 35.6867C103.109 35.9891 103.01 36.2916 102.895 36.594C102.853 36.7088 102.775 36.8965 102.66 37.1572C102.545 37.418 102.404 37.71 102.237 38.0333C102.07 38.3462 101.893 38.6539 101.705 38.9563C101.527 39.2484 101.345 39.4935 101.157 39.6916C100.979 39.8793 100.817 39.9732 100.671 39.9732C100.598 40.4425 100.515 40.9067 100.421 41.3656C100.337 41.814 100.295 42.2834 100.295 42.7736C100.4 42.8466 100.494 42.9248 100.577 43.0082C100.671 43.0916 100.755 43.1803 100.828 43.2742C101.089 43.2533 101.345 43.1647 101.595 43.0082C101.846 42.8413 102.081 42.6484 102.3 42.4294C102.519 42.1999 102.717 41.9757 102.895 41.7567C103.083 41.5376 103.234 41.3551 103.349 41.2091C103.474 41.0527 103.558 40.9744 103.6 40.9744C103.62 40.9744 103.636 40.9901 103.647 41.0214C103.657 41.0422 103.662 41.0631 103.662 41.084C103.662 41.2508 103.558 41.4699 103.349 41.741C103.151 42.0018 102.905 42.2729 102.613 42.5545C102.321 42.8257 102.034 43.0656 101.752 43.2742C101.48 43.4828 101.272 43.6131 101.125 43.6653C101.459 44.1242 101.689 44.6196 101.814 45.1515C101.95 45.6834 102.018 46.2309 102.018 46.7941C102.018 46.9506 102.008 47.1488 101.987 47.3886C101.976 47.6285 101.94 47.8736 101.877 48.1239C101.825 48.3742 101.736 48.5828 101.611 48.7497C101.486 48.9166 101.313 49 101.094 49ZM100.781 39.3161C100.948 39.264 101.125 39.1076 101.313 38.8468C101.501 38.5861 101.684 38.2732 101.861 37.9082C102.039 37.5431 102.201 37.1677 102.347 36.7818C102.493 36.3854 102.613 36.0256 102.707 35.7023C102.811 35.3686 102.879 35.1182 102.911 34.9514C102.952 34.7428 102.989 34.529 103.02 34.31C103.052 34.0909 103.067 33.8771 103.067 33.6685C103.067 33.606 103.057 33.5069 103.036 33.3713C103.025 33.2253 102.963 33.1523 102.848 33.1523C102.817 33.1523 102.775 33.1627 102.723 33.1836C102.681 33.2044 102.65 33.2253 102.629 33.2461C102.409 33.6216 102.195 34.0701 101.987 34.5916C101.788 35.1026 101.606 35.6449 101.439 36.2186C101.272 36.7818 101.131 37.3345 101.016 37.8769C100.901 38.4192 100.823 38.899 100.781 39.3161ZM101.125 48.5933C101.261 48.5933 101.36 48.515 101.423 48.3586C101.486 48.2021 101.522 48.0248 101.533 47.8267C101.553 47.6285 101.564 47.4616 101.564 47.3261C101.564 46.9089 101.538 46.4865 101.486 46.0589C101.444 45.6312 101.35 45.2141 101.204 44.8073C101.068 44.411 100.854 44.0564 100.562 43.7435L100.28 43.6809C100.28 43.7748 100.28 43.9573 100.28 44.2285C100.29 44.5101 100.306 44.8334 100.327 45.1984C100.348 45.5739 100.379 45.9546 100.421 46.3405C100.463 46.7368 100.515 47.1018 100.577 47.4356C100.64 47.7797 100.713 48.0561 100.797 48.2647C100.891 48.4837 101 48.5933 101.125 48.5933Z" fill="#FFC93E"/>
<path d="M7.85665 1C11.7087 1 14.6594 1.69139 16.7089 3.07417C18.7584 4.43226 19.7831 6.55582 19.7831 9.44485C19.7831 11.2474 19.3634 12.7166 18.5238 13.8525C17.709 14.9636 16.5237 15.8402 14.9681 16.4822C15.4866 17.1242 16.0299 17.865 16.5978 18.7046C17.1657 19.5194 17.7213 20.3836 18.2646 21.2973C18.8325 22.1862 19.3757 23.1245 19.8943 24.1122C20.4128 25.0752 20.8943 26.0259 21.3388 26.9642H14.857C14.3878 26.1247 13.9063 25.2728 13.4125 24.4085C12.9433 23.5443 12.4495 22.7048 11.9309 21.8899C11.4371 21.075 10.9432 20.3096 10.4494 19.5935C9.95552 18.8527 9.46166 18.186 8.96781 17.5934H6.11582V26.9642H0.337769V1.6667C1.59709 1.41977 2.89345 1.24693 4.22684 1.14816C5.58494 1.04938 6.79487 1 7.85665 1ZM8.19 5.92616C7.77023 5.92616 7.38749 5.93851 7.04179 5.9632C6.72079 5.98789 6.41214 6.01259 6.11582 6.03728V13.0006H7.74553C9.91848 13.0006 11.4741 12.729 12.4124 12.1857C13.3507 11.6425 13.8199 10.7165 13.8199 9.40781C13.8199 8.14849 13.3384 7.25956 12.3754 6.74102C11.4371 6.19778 10.0419 5.92616 8.19 5.92616Z" stroke="#FFC93E" stroke-width="0.4" mask="url(#path-1-outside-1_5819_1249)"/>
<path d="M22.8056 17.3712C22.8056 15.6427 23.0648 14.1364 23.5834 12.8524C24.1266 11.5437 24.8304 10.4572 25.6946 9.59301C26.5588 8.72877 27.5465 8.07442 28.6577 7.62995C29.7936 7.18548 30.9541 6.96325 32.1394 6.96325C34.9049 6.96325 37.0902 7.81514 38.6952 9.51893C40.3002 11.198 41.1028 13.6796 41.1028 16.9637C41.1028 17.2847 41.0904 17.6428 41.0657 18.0379C41.041 18.4082 41.0163 18.7416 40.9916 19.0379H28.4725C28.596 20.1738 29.1269 21.075 30.0652 21.7417C31.0035 22.4084 32.2628 22.7418 33.8431 22.7418C34.8555 22.7418 35.8432 22.6554 36.8062 22.4825C37.794 22.285 38.5965 22.0504 39.2138 21.7788L39.9545 26.2605C39.6582 26.4086 39.2632 26.5568 38.7693 26.7049C38.2755 26.8531 37.7199 26.9766 37.1026 27.0753C36.5099 27.1988 35.8679 27.2976 35.1765 27.3716C34.4851 27.4457 33.7938 27.4828 33.1024 27.4828C31.3492 27.4828 29.8183 27.2235 28.5096 26.7049C27.2255 26.1864 26.1514 25.4827 25.2872 24.5937C24.4476 23.6801 23.818 22.606 23.3982 21.3714C23.0031 20.1367 22.8056 18.8033 22.8056 17.3712ZM35.7692 15.2599C35.7445 14.7908 35.6581 14.334 35.5099 13.8895C35.3864 13.445 35.1765 13.05 34.8802 12.7043C34.6086 12.3586 34.2506 12.0746 33.8061 11.8524C33.3863 11.6301 32.8554 11.519 32.2134 11.519C31.5961 11.519 31.0652 11.6301 30.6208 11.8524C30.1763 12.0499 29.8059 12.3215 29.5096 12.6672C29.2133 13.0129 28.9787 13.4204 28.8059 13.8895C28.6577 14.334 28.5466 14.7908 28.4725 15.2599H35.7692Z" stroke="#FFC93E" stroke-width="0.4" mask="url(#path-1-outside-1_5819_1249)"/>
<path d="M52.8064 23.1122C53.3497 23.1122 53.8682 23.0998 54.3621 23.0751C54.8559 23.0504 55.251 23.0134 55.5473 22.964V18.7786C55.3251 18.7292 54.9917 18.6799 54.5473 18.6305C54.1028 18.5811 53.6954 18.5564 53.325 18.5564C52.8064 18.5564 52.3126 18.5934 51.8434 18.6675C51.399 18.7169 51.0039 18.828 50.6582 19.0009C50.3125 19.1737 50.0409 19.4083 49.8433 19.7046C49.6458 20.0009 49.547 20.3713 49.547 20.8158C49.547 21.68 49.831 22.285 50.3989 22.6307C50.9915 22.9517 51.794 23.1122 52.8064 23.1122ZM52.362 6.96325C53.9917 6.96325 55.3498 7.14844 56.4362 7.51883C57.5227 7.88922 58.387 8.42011 59.029 9.1115C59.6957 9.80289 60.1648 10.6424 60.4364 11.6301C60.708 12.6178 60.8439 13.7167 60.8439 14.9266V26.4086C60.0537 26.5815 58.9549 26.779 57.5474 27.0013C56.1399 27.2482 54.4361 27.3716 52.4361 27.3716C51.1767 27.3716 50.0285 27.2605 48.9914 27.0383C47.979 26.8161 47.1025 26.458 46.3617 25.9642C45.6209 25.4456 45.053 24.7789 44.6579 23.9641C44.2628 23.1492 44.0653 22.1492 44.0653 20.9639C44.0653 19.8281 44.2875 18.8651 44.732 18.0749C45.2011 17.2847 45.8185 16.6551 46.5839 16.1859C47.3494 15.7168 48.226 15.3834 49.2137 15.1859C50.2014 14.9636 51.2261 14.8525 52.2879 14.8525C53.004 14.8525 53.6336 14.8896 54.1769 14.9636C54.7448 15.013 55.2016 15.0871 55.5473 15.1859V14.6673C55.5473 13.729 55.2633 12.9759 54.6954 12.408C54.1275 11.84 53.1398 11.5561 51.7323 11.5561C50.794 11.5561 49.868 11.6301 48.9544 11.7783C48.0408 11.9018 47.2506 12.087 46.5839 12.3339L45.8802 7.88922C46.2012 7.79045 46.5963 7.69168 47.0654 7.59291C47.5593 7.46945 48.0902 7.37068 48.6581 7.2966C49.226 7.19783 49.8186 7.12375 50.436 7.07437C51.078 7.00029 51.72 6.96325 52.362 6.96325Z" stroke="#FFC93E" stroke-width="0.4" mask="url(#path-1-outside-1_5819_1249)"/>
<path d="M64.9083 17.223C64.9083 15.8155 65.1305 14.4945 65.575 13.2599C66.0442 12.0005 66.7109 10.9141 67.5751 10.0004C68.4393 9.06212 69.4888 8.32134 70.7234 7.7781C71.958 7.23487 73.3655 6.96325 74.9458 6.96325C75.9829 6.96325 76.9336 7.06202 77.7978 7.25956C78.662 7.43241 79.5016 7.69168 80.3164 8.03738L79.1682 12.445C78.6497 12.2475 78.0818 12.0746 77.4645 11.9265C76.8471 11.7783 76.1557 11.7042 75.3903 11.7042C73.7606 11.7042 72.5383 12.2104 71.7234 13.2228C70.9333 14.2352 70.5382 15.5686 70.5382 17.223C70.5382 18.9762 70.9086 20.3343 71.6494 21.2973C72.4148 22.2603 73.7359 22.7418 75.6125 22.7418C76.2792 22.7418 76.9953 22.6801 77.7608 22.5566C78.5262 22.4331 79.23 22.2356 79.872 21.964L80.6498 26.4827C80.0078 26.7543 79.2053 26.9889 78.2423 27.1864C77.2793 27.384 76.2175 27.4828 75.0569 27.4828C73.2791 27.4828 71.7481 27.2235 70.4641 26.7049C69.1801 26.1617 68.1183 25.4333 67.2788 24.5197C66.4639 23.606 65.859 22.5319 65.4639 21.2973C65.0935 20.038 64.9083 18.6799 64.9083 17.223Z" stroke="#FFC93E" stroke-width="0.4" mask="url(#path-1-outside-1_5819_1249)"/>
<path d="M84.1685 2.62971L89.6873 1.74078V7.48179H96.3172V12.0746H89.6873V18.9268C89.6873 20.0873 89.8848 21.0133 90.2799 21.7047C90.6997 22.3961 91.5268 22.7418 92.7615 22.7418C93.3541 22.7418 93.9591 22.6924 94.5764 22.5936C95.2184 22.4702 95.7987 22.3097 96.3172 22.1121L97.095 26.4086C96.4283 26.6803 95.6876 26.9148 94.8727 27.1124C94.0578 27.3099 93.0578 27.4087 91.8726 27.4087C90.3663 27.4087 89.1193 27.2111 88.1316 26.8161C87.1439 26.3963 86.3538 25.8284 85.7611 25.1123C85.1685 24.3715 84.7488 23.4826 84.5018 22.4455C84.2796 21.4084 84.1685 20.2602 84.1685 19.0009V2.62971Z" stroke="#FFC93E" stroke-width="0.4" mask="url(#path-1-outside-1_5819_1249)"/>
<path d="M84.667 44.5257C83.8736 44.5257 83.2368 44.3484 82.7566 43.9938C82.2868 43.6392 81.9475 43.1647 81.7387 42.5702C81.5404 41.9757 81.4412 41.3238 81.4412 40.6146C81.4412 40.0723 81.4986 39.5352 81.6135 39.0033C81.7387 38.4714 81.911 37.9551 82.1302 37.4545C82.2868 37.079 82.506 36.667 82.7879 36.2186C83.0698 35.7701 83.3934 35.3268 83.7588 34.8888C84.1242 34.4403 84.5156 34.0336 84.9332 33.6685C85.3613 33.3035 85.8049 33.0115 86.2643 32.7925C86.7236 32.563 87.1829 32.4483 87.6423 32.4483C88.1956 32.4483 88.6236 32.6204 88.9263 32.9645C89.2395 33.3087 89.3961 33.7468 89.3961 34.2787C89.3961 34.6958 89.3022 35.1391 89.1143 35.6084C88.9368 36.0778 88.6915 36.521 88.3783 36.9382C88.0651 37.345 87.6997 37.6787 87.2821 37.9394C86.875 38.2002 86.4417 38.3306 85.9824 38.3306C85.6901 38.3306 85.4656 38.2471 85.3091 38.0802C85.1525 37.9134 85.0742 37.6839 85.0742 37.3919C85.0742 37.3189 85.0898 37.1937 85.1211 37.0164C85.1525 36.8391 85.1994 36.6566 85.2621 36.4689C85.3247 36.2707 85.3926 36.1038 85.4656 35.9683C85.5387 35.8222 85.6118 35.7492 85.6849 35.7492C85.7266 35.7492 85.7527 35.7701 85.7632 35.8118C85.7736 35.8431 85.7788 35.8744 85.7788 35.9057C85.7788 36.1351 85.7162 36.3646 85.5909 36.594C85.4656 36.8235 85.403 37.0738 85.403 37.345C85.403 37.5536 85.4604 37.7256 85.5753 37.8612C85.6901 37.9968 85.8571 38.0646 86.0764 38.0646C86.4731 38.0646 86.8437 37.9447 87.1882 37.7048C87.5431 37.4545 87.8563 37.1364 88.1277 36.7505C88.3991 36.3646 88.6132 35.963 88.7698 35.5459C88.9263 35.1182 89.0046 34.7271 89.0046 34.3725C89.0046 33.9553 88.8741 33.6112 88.6132 33.34C88.3626 33.0584 88.0233 32.9176 87.5953 32.9176C87.1777 32.9176 86.7549 33.0271 86.3269 33.2461C85.9093 33.4547 85.5022 33.7363 85.1055 34.0909C84.7192 34.4351 84.3538 34.8158 84.0093 35.233C83.6753 35.6502 83.383 36.0726 83.1324 36.5002C82.8819 36.9173 82.6835 37.3032 82.5374 37.6578C82.339 38.1272 82.1824 38.6122 82.0676 39.1128C81.9632 39.603 81.911 40.1036 81.911 40.6146C81.911 41.2195 81.9945 41.788 82.1615 42.3199C82.339 42.8413 82.6313 43.2637 83.0385 43.5871C83.4456 43.8999 83.9937 44.0564 84.6827 44.0564H84.8393C85.3195 44.0564 85.7997 43.9156 86.2799 43.634C86.7601 43.342 87.2195 42.9717 87.6579 42.5232C88.0964 42.0748 88.4879 41.6159 88.8324 41.1465C89.1873 40.6668 89.4796 40.2392 89.7093 39.8637C89.8555 39.6238 89.9807 39.3839 90.0851 39.1441C90.2 38.8937 90.32 38.6487 90.4453 38.4088C90.4662 38.3775 90.4923 38.341 90.5236 38.2993C90.5549 38.2575 90.5915 38.2367 90.6332 38.2367C90.6541 38.2993 90.6645 38.3514 90.6645 38.3931C90.6645 38.4557 90.6541 38.5079 90.6332 38.5496C90.4975 38.9668 90.2835 39.4361 89.9912 39.9576C89.6989 40.479 89.3491 41.0057 88.942 41.5376C88.5349 42.0696 88.0912 42.565 87.611 43.0239C87.1412 43.4723 86.6505 43.8321 86.139 44.1033C85.6379 44.3849 85.1472 44.5257 84.667 44.5257Z" stroke="#FFC93E" stroke-width="0.4" mask="url(#path-1-outside-1_5819_1249)"/>
<path d="M91.855 43.9156C91.6566 43.9156 91.4896 43.8426 91.3539 43.6966C91.2286 43.5506 91.1295 43.3732 91.0564 43.1647C90.9833 42.9456 90.9311 42.7266 90.8998 42.5076C90.8789 42.2886 90.8685 42.1061 90.8685 41.96C90.8685 41.8036 90.8841 41.5533 90.9154 41.2091C90.9572 40.8545 91.0198 40.4634 91.1034 40.0358C91.1869 39.6082 91.2913 39.1962 91.4165 38.7999C91.5418 38.3931 91.688 38.0542 91.855 37.783C92.0325 37.5118 92.236 37.3658 92.4657 37.345C92.497 37.2511 92.544 37.1729 92.6066 37.1103C92.6693 37.0373 92.7528 37.0008 92.8572 37.0008C93.066 37.0008 93.2487 37.0894 93.4053 37.2667C93.5619 37.444 93.6924 37.6631 93.7967 37.9238C93.9011 38.1845 93.9794 38.4401 94.0316 38.6904C94.0943 38.9407 94.1256 39.1441 94.1256 39.3005C94.1256 39.7803 94.0786 40.2548 93.9847 40.7241L94.1099 40.7398C94.4127 40.7398 94.6476 40.6928 94.8146 40.599C94.9816 40.5051 95.1121 40.4165 95.2061 40.333C95.3 40.2392 95.3783 40.1922 95.441 40.1922C95.5036 40.1922 95.5349 40.2287 95.5349 40.3017C95.5349 40.4269 95.4671 40.5416 95.3314 40.6459C95.2061 40.7398 95.0495 40.8284 94.8616 40.9119C94.6737 40.9849 94.491 41.037 94.3135 41.0683C94.136 41.0996 94.0003 41.1048 93.9064 41.084C93.8542 41.303 93.7654 41.5741 93.6402 41.8975C93.5253 42.2104 93.3792 42.5232 93.2017 42.8361C93.0347 43.1386 92.8363 43.3941 92.6066 43.6027C92.377 43.8113 92.1264 43.9156 91.855 43.9156ZM93.5619 40.4113C93.6245 40.0462 93.6558 39.676 93.6558 39.3005C93.6558 39.2171 93.6349 39.0763 93.5932 38.8781C93.5619 38.6695 93.5097 38.4505 93.4366 38.221C93.3739 37.9916 93.2957 37.7934 93.2017 37.6266C93.1077 37.4597 93.0086 37.3762 92.9042 37.3762C92.852 37.3762 92.8102 37.418 92.7789 37.5014C92.758 37.5744 92.7424 37.6578 92.7319 37.7517C92.7319 37.8456 92.7319 37.9082 92.7319 37.9394C92.7319 38.3566 92.7946 38.7947 92.9198 39.2536C93.0555 39.702 93.2696 40.0879 93.5619 40.4113ZM91.902 43.5088C92.0586 43.5088 92.2204 43.4045 92.3874 43.1959C92.5545 42.9769 92.711 42.7162 92.8572 42.4137C93.0138 42.1008 93.1443 41.8036 93.2487 41.522C93.3531 41.2404 93.4209 41.0318 93.4522 40.8962C93.0555 40.6251 92.758 40.26 92.5597 39.8011C92.3718 39.3422 92.2778 38.8729 92.2778 38.3931C92.2778 38.1845 92.2935 37.9864 92.3248 37.7986C92.1055 38.1741 91.9229 38.6174 91.7767 39.1284C91.6305 39.6395 91.5209 40.1609 91.4479 40.6929C91.3852 41.2248 91.3539 41.7097 91.3539 42.1478C91.3539 42.2521 91.3643 42.4137 91.3852 42.6327C91.4165 42.8518 91.474 43.0551 91.5575 43.2429C91.641 43.4202 91.7558 43.5088 91.902 43.5088Z" stroke="#FFC93E" stroke-width="0.4" mask="url(#path-1-outside-1_5819_1249)"/>
<path d="M95.6739 43.7279C95.6008 43.7279 95.5434 43.7018 95.5017 43.6496C95.4703 43.5871 95.4547 43.5193 95.4547 43.4463C95.4547 42.8622 95.486 42.2781 95.5486 41.6941C95.6217 41.0996 95.6582 40.5103 95.6582 39.9263C95.6582 39.8637 95.653 39.7438 95.6426 39.5665C95.6426 39.3787 95.6321 39.1806 95.6113 38.972C95.6008 38.7529 95.5799 38.56 95.5486 38.3931C95.5277 38.2158 95.4964 38.1063 95.4547 38.0646C95.4129 38.0333 95.3712 37.9968 95.3294 37.9551C95.2981 37.9134 95.2824 37.8612 95.2824 37.7986C95.2824 37.7361 95.3085 37.6891 95.3607 37.6578C95.4234 37.6161 95.486 37.5953 95.5486 37.5953C95.7261 37.5953 95.8514 37.6787 95.9245 37.8456C96.008 38.002 96.0602 38.195 96.081 38.4244C96.1124 38.6539 96.128 38.8729 96.128 39.0815C96.128 40.0619 96.0967 41.0475 96.0341 42.0383C96.0758 41.9235 96.1593 41.7202 96.2846 41.4281C96.4099 41.1361 96.5613 40.8076 96.7387 40.4425C96.9162 40.0775 97.0989 39.7281 97.2868 39.3944C97.4852 39.0502 97.6679 38.7686 97.8349 38.5496C98.0019 38.3201 98.1376 38.2054 98.242 38.2054C98.3882 38.2054 98.4926 38.2993 98.5552 38.487C98.6283 38.6643 98.6648 38.8103 98.6648 38.925C98.6648 39.4048 98.6387 39.8846 98.5865 40.3643C98.5448 40.8441 98.5239 41.3291 98.5239 41.8192C98.5239 41.8818 98.5291 42.0018 98.5396 42.1791C98.5604 42.3459 98.5918 42.5076 98.6335 42.664C98.6857 42.8101 98.764 42.8831 98.8684 42.8831C98.9519 42.8831 99.0615 42.7892 99.1972 42.6015C99.333 42.4137 99.4739 42.1947 99.62 41.9444C99.7662 41.6837 99.8967 41.4386 100.012 41.2091C100.126 40.9797 100.205 40.818 100.246 40.7241C100.257 40.7033 100.267 40.6824 100.278 40.6616C100.288 40.6303 100.304 40.6146 100.325 40.6146C100.377 40.6146 100.408 40.6563 100.419 40.7398C100.429 40.8128 100.434 40.8597 100.434 40.8806C100.434 40.9849 100.377 41.1674 100.262 41.4281C100.147 41.6889 100.001 41.9653 99.8236 42.2573C99.6566 42.5493 99.4791 42.7996 99.2912 43.0082C99.1137 43.2168 98.9519 43.3211 98.8058 43.3211C98.597 43.3211 98.4404 43.2377 98.336 43.0708C98.242 42.9039 98.1794 42.7162 98.1481 42.5076C98.1168 42.2886 98.1011 42.1061 98.1011 41.96C98.1011 41.6159 98.1168 41.2717 98.1481 40.9275C98.1898 40.5833 98.2107 40.2392 98.2107 39.895C98.2107 39.8637 98.2055 39.7855 98.1951 39.6603C98.1951 39.5352 98.1898 39.4152 98.1794 39.3005C98.169 39.1858 98.1429 39.1284 98.1011 39.1284C97.9967 39.1284 97.861 39.2588 97.6939 39.5195C97.5374 39.7803 97.3651 40.1088 97.1772 40.5051C96.9997 40.9014 96.8223 41.3134 96.6448 41.741C96.4673 42.1582 96.3107 42.5337 96.175 42.8674C96.0497 43.2012 95.961 43.4254 95.9088 43.5401C95.8879 43.5818 95.8566 43.6236 95.8148 43.6653C95.7835 43.707 95.7365 43.7279 95.6739 43.7279Z" stroke="#FFC93E" stroke-width="0.4" mask="url(#path-1-outside-1_5819_1249)"/>
<path d="M101.094 49C100.875 49 100.687 48.8853 100.53 48.6558C100.384 48.4264 100.264 48.1239 100.17 47.7485C100.076 47.373 99.9979 46.9662 99.9353 46.5282C99.8831 46.1006 99.8466 45.673 99.8257 45.2454C99.8048 44.8282 99.7892 44.4527 99.7787 44.119C99.7787 43.7956 99.7787 43.561 99.7787 43.415C99.6012 43.269 99.5125 43.0917 99.5125 42.8831C99.5125 42.7996 99.5386 42.7266 99.5908 42.664C99.643 42.591 99.7161 42.5545 99.81 42.5545C99.8309 42.1478 99.8675 41.741 99.9197 41.3343C99.9719 40.9275 100.024 40.526 100.076 40.1297C100.097 39.9628 100.149 39.6655 100.233 39.2379C100.327 38.7999 100.442 38.294 100.577 37.7204C100.723 37.1364 100.885 36.5419 101.063 35.937C101.24 35.3216 101.423 34.7532 101.611 34.2317C101.809 33.6998 102.008 33.2722 102.206 32.9489C102.404 32.6152 102.592 32.4483 102.77 32.4483C102.968 32.4483 103.119 32.5421 103.224 32.7299C103.328 32.9176 103.401 33.1314 103.443 33.3713C103.485 33.6007 103.506 33.7885 103.506 33.9345C103.506 34.0701 103.495 34.2057 103.474 34.3412C103.464 34.4768 103.448 34.6124 103.427 34.748C103.365 35.0609 103.286 35.3738 103.192 35.6867C103.109 35.9891 103.01 36.2916 102.895 36.594C102.853 36.7088 102.775 36.8965 102.66 37.1572C102.545 37.418 102.404 37.71 102.237 38.0333C102.07 38.3462 101.893 38.6539 101.705 38.9563C101.527 39.2484 101.345 39.4935 101.157 39.6916C100.979 39.8793 100.817 39.9732 100.671 39.9732C100.598 40.4425 100.515 40.9067 100.421 41.3656C100.337 41.814 100.295 42.2834 100.295 42.7736C100.4 42.8466 100.494 42.9248 100.577 43.0082C100.671 43.0916 100.755 43.1803 100.828 43.2742C101.089 43.2533 101.345 43.1647 101.595 43.0082C101.846 42.8413 102.081 42.6484 102.3 42.4294C102.519 42.1999 102.717 41.9757 102.895 41.7567C103.083 41.5376 103.234 41.3551 103.349 41.2091C103.474 41.0527 103.558 40.9744 103.6 40.9744C103.62 40.9744 103.636 40.9901 103.647 41.0214C103.657 41.0422 103.662 41.0631 103.662 41.084C103.662 41.2508 103.558 41.4699 103.349 41.741C103.151 42.0018 102.905 42.2729 102.613 42.5545C102.321 42.8257 102.034 43.0656 101.752 43.2742C101.48 43.4828 101.272 43.6131 101.125 43.6653C101.459 44.1242 101.689 44.6196 101.814 45.1515C101.95 45.6834 102.018 46.2309 102.018 46.7941C102.018 46.9506 102.008 47.1488 101.987 47.3886C101.976 47.6285 101.94 47.8736 101.877 48.1239C101.825 48.3742 101.736 48.5828 101.611 48.7497C101.486 48.9166 101.313 49 101.094 49ZM100.781 39.3161C100.948 39.264 101.125 39.1076 101.313 38.8468C101.501 38.5861 101.684 38.2732 101.861 37.9082C102.039 37.5431 102.201 37.1677 102.347 36.7818C102.493 36.3854 102.613 36.0256 102.707 35.7023C102.811 35.3686 102.879 35.1182 102.911 34.9514C102.952 34.7428 102.989 34.529 103.02 34.31C103.052 34.0909 103.067 33.8771 103.067 33.6685C103.067 33.606 103.057 33.5069 103.036 33.3713C103.025 33.2253 102.963 33.1523 102.848 33.1523C102.817 33.1523 102.775 33.1627 102.723 33.1836C102.681 33.2044 102.65 33.2253 102.629 33.2461C102.409 33.6216 102.195 34.0701 101.987 34.5916C101.788 35.1026 101.606 35.6449 101.439 36.2186C101.272 36.7818 101.131 37.3345 101.016 37.8769C100.901 38.4192 100.823 38.899 100.781 39.3161ZM101.125 48.5933C101.261 48.5933 101.36 48.515 101.423 48.3586C101.486 48.2021 101.522 48.0248 101.533 47.8267C101.553 47.6285 101.564 47.4616 101.564 47.3261C101.564 46.9089 101.538 46.4865 101.486 46.0589C101.444 45.6312 101.35 45.2141 101.204 44.8073C101.068 44.411 100.854 44.0564 100.562 43.7435L100.28 43.6809C100.28 43.7748 100.28 43.9573 100.28 44.2285C100.29 44.5101 100.306 44.8334 100.327 45.1984C100.348 45.5739 100.379 45.9546 100.421 46.3405C100.463 46.7368 100.515 47.1018 100.577 47.4356C100.64 47.7797 100.713 48.0561 100.797 48.2647C100.891 48.4837 101 48.5933 101.125 48.5933Z" stroke="#FFC93E" stroke-width="0.4" mask="url(#path-1-outside-1_5819_1249)"/>
</svg>
